<svg id="Camada_1" data-name="Camada 1" xmlns="http://www.w3.org/2000/svg" viewBox="0 0 446.14 100.97"><defs><style>.cls-1{fill:#188178;}.cls-2{fill:#00b8b5;}</style></defs><title>Prancheta 1</title><path class="cls-1" d="M122.8,79.72v-19a9.5,9.5,0,0,1,8.3-9.53,9.35,9.35,0,0,1,10.42,9.28v19.3a4.89,4.89,0,0,0,9.77,0V61.39a19.13,19.13,0,0,0-38.25,0V79.72a4.88,4.88,0,0,0,9.76,0"/><path class="cls-1" d="M99.34,47.18V66.34a9.49,9.49,0,0,1-8.29,9.52,9.36,9.36,0,0,1-10.43-9.28V47.18a4.88,4.88,0,0,0-9.76,0V65.61a19.13,19.13,0,0,0,38.25,0V47.18a4.89,4.89,0,0,0-9.77,0"/><path class="cls-1" d="M47.81,42.31h0a19.07,19.07,0,0,0-14.24,6.35A19.13,19.13,0,0,0,.2,61.39V79.72a4.89,4.89,0,0,0,9.77,0V60.66a9.5,9.5,0,0,1,8.29-9.52,9.36,9.36,0,0,1,10.43,9.28v19.3a4.88,4.88,0,0,0,9.76,0V61.39h0v-.73a9.5,9.5,0,0,1,8.3-9.52,9.35,9.35,0,0,1,10.42,9.28v19.3a4.89,4.89,0,0,0,9.77,0V61.39A19.11,19.11,0,0,0,47.81,42.31"/><path class="cls-1" d="M177,76.56c-7.31,0-12.46-5.91-12.46-13.05v-.15c0-7,4.77-12.81,12.3-12.81,7.23,0,12.38,5.9,12.38,13h0v.15c0,7.06-4.76,12.89-12.22,12.89m16.88-49.81a4.65,4.65,0,0,0-4.66,4.64V46A22,22,0,0,0,177,42.41c-12.54,0-21.77,9.59-21.77,21.1v.16c0,11.59,9.15,21,21.61,21s21.69-9.6,21.69-21.19V31.39a4.65,4.65,0,0,0-4.65-4.64"/><path class="cls-2" d="M254.57,63.64c0,7-4.76,12.82-12.3,12.82-7.23,0-12.38-5.91-12.38-13h0v-.15c0-7.07,4.77-12.9,12.23-12.9,7.3,0,12.45,5.91,12.45,13.05Zm-12.3-21.33c-12.46,0-21.69,9.59-21.69,21.18V95.61a4.66,4.66,0,0,0,9.31,0V81a22,22,0,0,0,12.23,3.58c12.53,0,21.76-9.59,21.76-21.1v-.15c0-11.59-9.15-21-21.61-21"/><path class="cls-2" d="M301.81,63.45h0v.12c0,7.06-4.77,12.89-12.23,12.89-7.31,0-12.46-5.91-12.46-13v-.15c0-7,4.77-12.82,12.31-12.82,7.22,0,12.38,5.91,12.38,13ZM289.58,42.31c-12.54,0-21.77,9.59-21.77,21.1v.16c0,11.58,9.15,21,21.62,21a22.12,22.12,0,0,0,12.47-3.74,4.65,4.65,0,0,0,9.21-.9V63.45h0v-.18c0-11.51-9.15-20.95-21.53-20.95"/><path class="cls-2" d="M349,63.45h0v.12c0,7.06-4.77,12.89-12.23,12.89s-12.46-5.91-12.46-13v-.15c0-7,4.77-12.82,12.31-12.82,7.22,0,12.38,5.91,12.38,13ZM336.73,42.31C324.27,42.31,315,51.9,315,63.49v.15c0,11.51,9.16,21,21.54,21a22.3,22.3,0,0,0,12.24-3.54v2.81a7.8,7.8,0,0,1-6.91,7.82c-.31,0-9.35,0-9.65,0a4.26,4.26,0,0,0-.46,8.49v0h9.36a17.22,17.22,0,0,0,17.18-17V63.34c0-11.59-9.15-21-21.61-21"/><path class="cls-2" d="M396.27,63.45h0v.12c0,7.06-4.77,12.89-12.23,12.89-7.3,0-12.46-5.91-12.46-13v-.15c0-7,4.77-12.82,12.31-12.82,7.23,0,12.38,5.91,12.38,13Zm9.31-.12c0-11.59-9.15-21-21.61-21s-21.69,9.59-21.69,21.18v.15c0,11.51,9.15,21,21.53,21a22.31,22.31,0,0,0,12.24-3.55v2.81a7.8,7.8,0,0,1-6.91,7.82c-.3,0-9.34,0-9.64,0a4.26,4.26,0,0,0-.47,8.49v0h9.36a17.22,17.22,0,0,0,17.19-17V63.33Z"/><path class="cls-1" d="M209.59,42.31a4.88,4.88,0,0,0-4.88,4.87V79.83a4.88,4.88,0,0,0,9.76,0V47.18a4.87,4.87,0,0,0-4.88-4.87"/><path class="cls-1" d="M215.19,32.35a5.6,5.6,0,1,1-5.6-5.6,5.59,5.59,0,0,1,5.6,5.6"/><path class="cls-2" d="M442.52.61l-18.09,18.1a3.57,3.57,0,0,0,0,5l18.09,18.09a1.56,1.56,0,0,0,2.68-1.11v-39A1.57,1.57,0,0,0,443.62.15a1.55,1.55,0,0,0-1.1.46"/><path class="cls-1" d="M422.24,25.94a6.66,6.66,0,0,1,0-9.42l1.22-1.22L408.77.61a1.57,1.57,0,0,0-2.68,1.11v39a1.57,1.57,0,0,0,2.68,1.11l14.69-14.68Z"/></svg>