<?xml version="1.0" encoding="utf-8"?>
<!-- Generator: Adobe Illustrator 23.0.3, SVG Export Plug-In . SVG Version: 6.00 Build 0)  -->
<svg version="1.1" id="Layer_1" xmlns="http://www.w3.org/2000/svg" xmlns:xlink="http://www.w3.org/1999/xlink" x="0px" y="0px"
	 viewBox="0 0 280 81" style="enable-background:new 0 0 280 81;" xml:space="preserve">
<style type="text/css">
	.st0{fill:#FFFFFF;}
	.st1{fill:#858585;}
	.st2{fill:#494949;}
	.st3{fill:#AAAAAA;}
	.st4{fill-rule:evenodd;clip-rule:evenodd;fill:#FFFFFF;}
	.st5{fill-rule:evenodd;clip-rule:evenodd;fill:#494949;}
	.st6{fill:#E73530;}
	.st7{fill:url(#SVGID_1_);}
	.st8{fill:#231F20;}
</style>
<g>
	<path class="st0" d="M70,27c-7.3,0.1-13.3-5.9-13.3-13.1c0-7.9,6-13.3,13.3-13.3h3.4c7.2,0,13.9,5.5,13.9,13.3
		c0,7.2-6.7,13.1-13.9,13.1C73.5,27,70,27,70,27z M70,1.6c-6.7,0-12,5.4-12,12.2s5.6,12.2,12.3,12.2s12.2-5.5,12.2-12.2
		C82.1,7,76.8,1.6,70,1.6z"/>
	<path class="st0" d="M67.3,20.9V6.6c-2.9,1.1-4.9,3.9-4.9,7.2S64.4,19.8,67.3,20.9z"/>
	<path class="st0" d="M77.8,13.8c0-3.2-2-6-4.9-7.2v14.3C75.7,19.8,77.8,17.1,77.8,13.8z"/>
</g>
<path class="st0" d="M125.7,55l-5.3,12.6h-3.4l-2.7-10c-0.1-0.5-0.3-0.9-0.9-1.1c-0.9-0.4-2-0.9-3.2-1.1l0.1-0.3h5.6
	c0.8,0,1.3,0.4,1.5,1.3l1.4,7.3l3.4-8.6L125.7,55L125.7,55z M139.2,63.6c0-3.3-4.6-3.6-4.6-5.1c0-0.4,0.4-1,1.4-1.1
	c0.4-0.1,1.7-0.1,3.2,0.5l0.5-2.7c-0.9-0.3-1.8-0.5-3.1-0.5c-3.2,0-5.5,1.7-5.5,4.2c0,1.8,1.6,2.8,2.9,3.4c1.3,0.5,1.7,1.1,1.7,1.5
	c0,0.9-1.1,1.3-2,1.3c-1.6,0-2.6-0.4-3.4-0.9l-0.5,2.8c0.8,0.3,2.3,0.6,3.7,0.6C137,67.9,139.2,66.2,139.2,63.6 M147.8,67.7h3
	L148.1,55h-2.7c-0.6,0-1.2,0.3-1.4,1L139,67.7h3.4l0.6-1.9h4.2L147.8,67.7z M144.3,63.2l1.7-4.7l1.1,4.7H144.3z M130.3,55l-2.7,12.7
	h-3.4l2.8-12.6L130.3,55L130.3,55z"/>
<g id="Layer_2_1_">
	<g id="Layer_1-2_1_">
		<path id="_Compound_Path__1_" class="st0" d="M59.2,80.7v-2.2c0.1-0.6-0.4-1.3-1.1-1.3c-0.1,0-0.1,0-0.1,0c-0.4,0-1,0.2-1.2,0.5
			c-0.2-0.3-0.6-0.5-1.1-0.5c-0.3,0-0.9,0.1-1.1,0.5v-0.4H54v3.4h0.5v-1.9c-0.1-0.4,0.3-0.9,0.8-0.9c0.1,0,0.1,0,0.1,0
			c0.5,0,0.8,0.3,0.8,0.9v1.9h0.6v-1.9c-0.1-0.4,0.3-0.9,0.8-0.9c0.1,0,0.1,0,0.1,0c0.5,0,0.8,0.3,0.8,0.9v1.9L59.2,80.7L59.2,80.7
			L59.2,80.7z M70.3,77.4H69v-1.1h-0.6v1.1h-0.8v0.5h0.8v1.6c0,0.9,0.3,1.3,1.2,1.3c0.3,0,0.6-0.1,0.9-0.3l-0.2-0.5
			c-0.2,0.1-0.4,0.1-0.6,0.2c-0.3,0-0.5-0.2-0.5-0.5V78h1.3C70.3,78,70.3,77.4,70.3,77.4z M76.4,77.2c-0.3,0-0.8,0.1-0.9,0.5v-0.4
			h-0.6v3.4h0.6v-1.9c0-0.5,0.3-0.9,0.8-0.9c0.1,0,0.3,0,0.4,0.1l0.2-0.6C76.9,77.2,76.7,77.2,76.4,77.2L76.4,77.2z M67,77.7
			c-0.4-0.2-0.9-0.3-1.4-0.3c-0.9,0-1.4,0.3-1.4,1.1c0,0.5,0.3,0.9,1.1,1l0.3,0.1c0.3,0.1,0.5,0.2,0.5,0.3c0,0.3-0.3,0.4-0.9,0.4
			c-0.3,0-0.9-0.1-1.1-0.3l-0.3,0.5c0.4,0.3,1,0.4,1.5,0.4c1,0,1.5-0.4,1.5-1.1s-0.4-0.9-1.2-1l-0.3-0.1c-0.3-0.1-0.5-0.1-0.5-0.3
			c0-0.2,0.3-0.4,0.6-0.4s0.8,0.1,1.1,0.3L67,77.7z M77.2,79.1c-0.1,1,0.6,1.7,1.6,1.7c0.1,0,0.1,0,0.1,0c0.4,0,0.9-0.1,1.3-0.3
			l-0.3-0.5c-0.2,0.2-0.5,0.3-0.9,0.3C78.4,80.2,78,79.7,78,79c0.1-0.5,0.5-1,1.1-1.1c0.3,0,0.6,0.1,0.9,0.3l0.3-0.5
			c-0.3-0.3-0.9-0.4-1.3-0.3C78,77.2,77.5,78,77.2,79.1C77.2,78.9,77.2,79,77.2,79.1L77.2,79.1z M72.4,77.2c-1,0-1.7,0.8-1.7,1.7
			c-0.1,0.9,0.6,1.7,1.5,1.7c0.1,0,0.1,0,0.1,0c0.5,0,1.1-0.1,1.4-0.4l-0.3-0.5c-0.3,0.2-0.5,0.3-1,0.3c-0.5,0-1-0.3-1.1-0.9h2.5
			c0-0.1,0-0.1,0-0.3C74,78,73.5,77.2,72.4,77.2L72.4,77.2z M72.4,77.9c0.4,0,0.9,0.3,0.9,0.9l0,0h-1.8
			C71.5,78.2,71.9,77.9,72.4,77.9L72.4,77.9z M63.3,79.1v-1.7h-0.6v0.4c-0.3-0.3-0.6-0.5-1.1-0.5c-1,0-1.7,0.9-1.7,1.7
			c0,1,0.9,1.7,1.7,1.7c0.4,0,0.9-0.1,1.1-0.5v0.4h0.6V79.1z M60.6,79.1c-0.1-0.5,0.3-1.1,1-1.2h0.1c0.6,0.1,1.1,0.5,1.1,1.3
			c-0.1,0.5-0.5,1-1.1,1.1C60.9,80.2,60.6,79.7,60.6,79.1L60.6,79.1L60.6,79.1z M86.7,77.2c-0.3,0-0.8,0.1-0.9,0.5v-0.4h-0.6v3.4
			h0.6v-1.9c0-0.5,0.3-0.9,0.8-0.9c0.1,0,0.3,0,0.4,0.1l0.2-0.6C87.1,77.2,86.9,77.2,86.7,77.2L86.7,77.2z M92.1,80.3
			c0.1,0,0.1,0,0.1,0c0.1,0,0.1,0.1,0.1,0.1l0.1,0.1c0,0.1,0,0.1,0,0.3c0,0.1-0.1,0.1-0.1,0.1L92.2,81c-0.1,0-0.1,0-0.1,0
			c-0.1,0-0.3-0.1-0.3-0.2c0-0.1,0-0.1,0-0.3c0-0.1,0.1-0.1,0.1-0.1L92.1,80.3L92.1,80.3L92.1,80.3z M92.1,80.9L92.1,80.9
			c0.1,0,0.1,0,0.1-0.1c0.1-0.1,0.1-0.2,0-0.3l-0.1-0.1l0,0l0,0c0,0-0.1,0-0.1,0.1c-0.1,0.1-0.1,0.2,0,0.3L92.1,80.9
			C92.1,80.8,92.1,80.9,92.1,80.9L92.1,80.9z M92.1,80.5L92.1,80.5L92.1,80.5l0.1,0.1h-0.1l0.1,0.1h-0.1v-0.1l0,0v0.1H92v-0.3
			L92.1,80.5z M92.1,80.5L92.1,80.5L92.1,80.5c0.1,0.1,0.1,0.1,0.1,0.1l0,0l0,0C92.3,80.6,92.3,80.6,92.1,80.5L92.1,80.5z
			 M84.2,79.1v-1.7h-0.6v0.4c-0.3-0.3-0.6-0.5-1.1-0.5c-1,0-1.7,0.9-1.7,1.7c0,1,0.9,1.7,1.7,1.7c0.4,0,0.9-0.1,1.1-0.5v0.4h0.6
			V79.1z M81.3,79.1c-0.1-0.5,0.3-1.1,1-1.2h0.1c0.6,0.1,1.1,0.5,1.1,1.3c-0.1,0.5-0.5,1-1.1,1.1C81.8,80.2,81.3,79.7,81.3,79.1
			L81.3,79.1L81.3,79.1z M90.9,79.1V76h-0.6v1.7c-0.3-0.3-0.6-0.5-1.1-0.5c-1,0-1.7,0.9-1.7,1.7c0,0.9,0.9,1.7,1.7,1.7
			c0.4,0,0.9-0.1,1.1-0.5v0.4h0.6V79.1z M88.2,79.1c-0.1-0.5,0.3-1.1,1-1.2h0.1c0.6,0.1,1.1,0.6,1,1.3c-0.1,0.5-0.4,0.9-1,1
			C88.8,80.2,88.2,79.7,88.2,79.1L88.2,79.1L88.2,79.1z"/>
		<g id="_Group__1_">
			<rect x="66.7" y="51.5" class="st1" width="11.2" height="20.1"/>
			<path id="_Path_2_1_" class="st2" d="M67.6,61.5c0-3.9,1.7-7.6,4.8-10c-5.5-4.3-13.6-3.4-18,2.2s-3.3,13.6,2.2,17.9
				c4.6,3.7,11.2,3.7,15.8,0C69.2,69.2,67.6,65.4,67.6,61.5z"/>
			<path class="st0" d="M91.8,69.4V69h0.1v-0.1h-0.4V69h0.1v0.4H91.8z M92.5,69.4v-0.5h-0.1l-0.1,0.3L92.1,69H92v0.4h0.1v-0.3v0.3
				h0.1l0.1-0.3v0.3C92.3,69.4,92.5,69.4,92.5,69.4z"/>
			<path class="st3" d="M92.8,61.5c0,7-5.7,12.8-12.8,12.8c-2.9,0-5.6-1-7.9-2.7c5.5-4.3,6.5-12.4,2.2-18c-0.6-0.9-1.3-1.5-2.2-2.2
				c5.5-4.3,13.6-3.4,18,2.2C92,55.9,92.8,58.7,92.8,61.5L92.8,61.5z"/>
		</g>
	</g>
</g>
<g>
	<g>
		<path class="st0" d="M173.3,9.6c0.5-0.2,1-0.3,1.6-0.3c2.3,0,4.3,1.7,4.8,3.9l3.3-0.7c-0.8-3.8-4.1-6.5-8.1-6.5
			c-0.9,0-1.8,0.2-2.6,0.4L173.3,9.6z"/>
		<path class="st0" d="M169.4,20.2l2.2-2.5c-1-0.9-1.7-2.2-1.7-3.6c0-1.5,0.7-2.7,1.7-3.6l-2.2-2.4c-1.8,1.5-2.8,3.7-2.8,6.1
			C166.5,16.5,167.6,18.8,169.4,20.2z"/>
		<path class="st0" d="M179.5,15.1c-0.4,2.2-2.3,3.9-4.8,3.9c-0.6,0-1.1-0.1-1.6-0.3l-1.1,3.2c0.8,0.3,1.8,0.4,2.6,0.4
			c3.9,0,7.3-2.8,8.1-6.5L179.5,15.1z"/>
	</g>
	<g>
		<g>
			<g>
				<path class="st0" d="M193.8,17.4c-0.6,0.5-1.3,0.8-2.1,0.8c-0.6,0-1.1-0.2-1.6-0.5l-1.1,1.8c0.8,0.5,1.7,0.8,2.6,0.8
					c1.4,0,2.6-0.5,3.6-1.4L193.8,17.4z"/>
				<path class="st0" d="M191.8,10.2c-2.8-0.1-5,2.1-5.1,5c0,1.1,0.3,1.9,0.8,2.8l9.1-3.9C196.1,12,194.2,10.3,191.8,10.2
					 M188.8,15.6c0-0.1,0-0.3,0-0.3c0-1.7,1.4-2.9,2.9-2.8c0.9,0,1.7,0.4,2.2,1.1L188.8,15.6z"/>
			</g>
			<path class="st0" d="M199.5,8.1v9.6l1.7,0.7l-0.8,1.8l-1.7-0.7c-0.4-0.2-0.7-0.4-0.8-0.7c-0.2-0.3-0.3-0.7-0.3-1.3V8.1H199.5z"/>
		</g>
		<g>
			<path class="st0" d="M205.5,12.4c0.3-0.1,0.6-0.2,0.9-0.2c1.4,0,2.6,1,2.8,2.3l2-0.4c-0.5-2.3-2.4-4-5-4c-0.6,0-1.1,0.1-1.6,0.3
				L205.5,12.4z"/>
			<path class="st0" d="M203.1,19l1.4-1.6c-0.6-0.6-1-1.3-1-2.2c0-0.9,0.4-1.7,1-2.2l-1.4-1.6c-1.1,0.9-1.8,2.3-1.8,3.8
				C201.5,16.7,202.1,18.1,203.1,19z"/>
			<path class="st0" d="M209.4,15.9c-0.3,1.3-1.5,2.3-2.8,2.3c-0.3,0-0.7-0.1-0.9-0.2l-0.7,1.9c0.5,0.2,1.1,0.3,1.6,0.3
				c2.4,0,4.4-1.8,5-4L209.4,15.9z"/>
		</g>
	</g>
</g>
<g>
	<polygon class="st4" points="12.7,22.3 12.7,14.5 19.4,14.5 19.4,16.4 14.9,16.4 14.9,17.5 19.3,17.5 19.3,19.3 14.9,19.3 
		14.9,20.4 19.4,20.4 19.4,22.3 	"/>
	<polygon class="st4" points="19.3,22.3 23,18.4 19.3,14.5 22.2,14.5 24.4,17 26.6,14.5 29.3,14.5 29.3,14.6 25.8,18.4 29.3,22.2 
		29.3,22.3 26.6,22.3 24.4,19.8 22.1,22.3 	"/>
	<g>
		<polygon class="st4" points="29.3,20.5 29.3,16.2 27.3,18.4 		"/>
		<polyline class="st4" points="29.3,0 1.6,0 1.6,27.8 29.3,27.8 29.3,23.3 26.1,23.3 24.4,21.5 22.6,23.3 11.6,23.3 11.6,14.5 
			8,14.5 12.4,4.6 16.7,4.6 18.2,8 18.2,4.6 23.5,4.6 24.4,7.1 25.3,4.6 29.3,4.6 		"/>
	</g>
	<path class="st4" d="M13.3,5.7l-3.4,7.7h2.4l0.6-1.5h3.6l0.6,1.5h2.5l-3.4-7.7L13.3,5.7L13.3,5.7z M13.5,10.1l1.1-2.5l1.1,2.5H13.5
		L13.5,10.1z"/>
	<polygon class="st4" points="19.4,13.4 19.4,5.7 22.8,5.7 24.4,10.4 26.1,5.7 29.3,5.7 29.3,13.4 27.3,13.4 27.3,8.1 25.3,13.4 
		23.4,13.4 21.5,8.1 21.5,13.4 	"/>
</g>
<g>
	<path id="fundo" class="st4" d="M243.9,3.1c-1.7,0-5.2,0-5.2,0c-2.3,0.1-4.1,1.1-4.6,2.9c-0.3,1-0.4,2-0.6,3.1
		c-1.1,5.2-2.2,10.5-3.1,15.6h40.1c3.1,0,5.3-0.6,5.8-3.1c0.2-1.2,0.5-2.5,0.8-3.7c1-4.9,2-9.8,3-14.8H243.9z"/>
	<path id="hipercard" class="st5" d="M243.4,10.7c0.2-0.1,0.5-0.9,0.2-1.1c-0.1-0.1-0.2-0.1-0.5-0.1c-0.2,0-0.3,0.1-0.4,0.2
		c-0.1,0.2-0.2,0.8,0,1C242.9,10.9,243.3,10.8,243.4,10.7z M240.4,9.6c-0.1,1-0.3,1.9-0.5,3c-1.1,0-2.3,0.1-3.3,0
		c0.2-1,0.3-1.9,0.5-2.9h-1.2c-0.4,2.5-0.9,4.9-1.3,7.3h1.2c0.2-1.2,0.3-2.5,0.6-3.7c1.1,0,2.3-0.1,3.3,0c-0.2,1.2-0.4,2.4-0.6,3.7
		h1.2c0.4-2.5,0.9-4.9,1.3-7.3h-1.2V9.6z M257.8,11.8c-1-0.4-1.7,0.2-2,0.9c0.1-0.3,0.1-0.6,0.2-0.9h-1.1c-0.2,1.8-0.5,3.6-0.9,5.3
		h1.1c0.1-1,0.2-2.4,0.5-3.3c0.2-0.8,1-1.4,1.9-1.1C257.6,12.2,257.7,12,257.8,11.8z M258.4,15.8c-0.1-0.2-0.1-0.6-0.1-1
		c0.1-0.8,0.3-1.6,0.8-2c0.5-0.5,1.7-0.4,2.6-0.1c0-0.3,0.1-0.5,0.1-0.9c-1.5-0.2-2.8-0.1-3.6,0.6c-0.8,0.8-1.2,2.5-0.9,3.6
		c0.4,1.3,2.2,1.3,3.6,0.9c0.1-0.2,0.1-0.5,0.1-0.8C260.2,16.4,258.7,16.6,258.4,15.8z M270.5,11.8c-1-0.4-1.7,0.3-2,0.8
		c0.1-0.2,0.1-0.5,0.2-0.9h-1c-0.2,1.8-0.5,3.6-1,5.3h1.1c0-0.6,0.1-1.2,0.2-1.9c0.2-1.4,0.5-3,2.3-2.6
		C270.4,12.3,270.4,12,270.5,11.8z M242.3,11.8L242.3,11.8c-0.2,1.8-0.5,3.6-1,5.3h1.1c0.2-1.8,0.5-3.6,1-5.3H242.3z M251.8,11.7
		c-0.8,0.1-1.4,0.3-1.9,0.8c-0.5,0.6-1.1,1.9-0.9,3.1c0.2,1.7,2.4,1.7,4.1,1.3c0-0.3,0.1-0.5,0.1-0.9c-0.8,0.2-1.9,0.6-2.7,0.2
		c-0.5-0.3-0.5-1.3-0.4-2c1.2,0,2.4,0,3.6,0c0.1-0.5,0.3-1.2,0.1-1.7C253.6,11.8,252.7,11.6,251.8,11.7z M252.9,13.5h-2.6
		c0.1-0.5,0.6-1.2,1.4-1.3C252.6,12.2,253.1,12.5,252.9,13.5z M247.7,11.8c-1-0.3-2,0.1-2.5,0.4l0,0l0,0l0,0c0-0.2,0.1-0.3,0.1-0.4
		h-1c-0.4,2.6-0.9,5.1-1.3,7.5h1.1c0.1-1,0.2-1.9,0.4-2.9c0.2,1,1.8,0.8,2.6,0.4C248.5,16.1,249.7,12.4,247.7,11.8z M246.9,16
		c-0.5,0.6-2,0.6-2.2-0.4c0-0.4,0.1-1,0.2-1.4c0.1-0.4,0.1-1,0.2-1.3c0.5-0.6,2.3-0.8,2.4,0.4C247.7,14.3,247.4,15.4,246.9,16z
		 M274.5,9.5c-0.1,0.9-0.2,1.6-0.4,2.4c-2.7-0.9-4.3,1.1-4.2,3.6c0,0.4,0.1,1,0.4,1.3c0.5,0.5,1.9,0.8,2.7,0.2
		c0.1-0.1,0.3-0.2,0.4-0.4c0.1-0.1,0.2-0.3,0.2-0.2c0,0.2-0.1,0.5-0.1,0.8h1c0.2-2.7,0.8-5.1,1.2-7.5H274.5z M272.1,16.4
		c-0.8,0-1.1-0.4-1.1-1.2c0-1.3,0.5-2.8,1.7-2.9c0.5-0.1,1,0.1,1.3,0.2C273.8,13.9,273.9,16.3,272.1,16.4z M262.8,11.8
		c0,0.3-0.1,0.5-0.2,0.9c0.6-0.1,2.6-0.6,2.8,0.2c0.1,0.3,0,0.5-0.1,0.8c-1.8-0.2-3.2,0.1-3.7,1.4c-0.2,0.9,0,1.7,0.5,1.9
		c1.1,0.4,2.4-0.1,2.8-0.8c0,0.2-0.1,0.5-0.1,0.8h1c0-0.9,0.1-1.6,0.3-2.4c0.1-0.6,0.3-1.4,0.3-1.9
		C266.3,11.2,264.1,11.7,262.8,11.8z M264.6,16c-0.5,0.5-2.2,0.8-1.9-0.6c0.1-1.1,1.3-1.3,2.6-1.2C265.2,14.8,265,15.5,264.6,16z"/>
</g>
<g id="g97">
	<g id="g65">
		<path id="path4" class="st0" d="M31,68.4c0,2.7-2.2,4.8-4.8,4.8H0v-19c0-2.7,2.2-4.8,4.8-4.8H31C31,49.4,31,68.4,31,68.4z"/>
		<g id="g39">
			<path id="path15" class="st3" d="M22.5,63.5h1.9c0.1,0,0.2,0,0.2,0c0.4-0.1,0.8-0.4,0.8-0.9c0-0.4-0.3-0.8-0.8-0.9
				c-0.1,0-0.2,0-0.2,0h-1.9V63.5z"/>
			<path id="path26" class="st3" d="M24.2,51c-1.9,0-3.4,1.5-3.4,3.4V58h4.8c0.1,0,0.2,0,0.3,0c1.1,0.1,1.9,0.6,1.9,1.6
				c0,0.8-0.5,1.4-1.6,1.6l0,0c1.1,0.1,1.9,0.8,1.9,1.6c0,1.1-1,1.7-2.2,1.7h-5.4v7h5.1c1.9,0,3.4-1.5,3.4-3.4V50.9h-4.9V51z"/>
			<path id="path37" class="st3" d="M25.2,59.8c0-0.4-0.3-0.8-0.8-0.9c0,0-0.1,0-0.2,0h-1.8v1.6h1.8c0.1,0,0.2,0,0.2,0
				C24.9,60.6,25.2,60.4,25.2,59.8z"/>
		</g>
		<path id="path50" class="st3" d="M5.2,51c-1.9,0-3.4,1.5-3.4,3.4v8.5c1,0.4,1.9,0.8,3,0.8c1.2,0,1.8-0.8,1.8-1.7v-4h2.9v4
			c0,1.5-1,2.8-4.2,2.8c-1.9,0-3.6-0.4-3.6-0.4v7.2h5.1c1.9,0,3.4-1.5,3.4-3.4V50.9H5.2V51z"/>
		<path id="path63" class="st3" d="M14.7,51c-1.9,0-3.4,1.5-3.4,3.4V59c0.9-0.8,2.4-1.2,4.8-1.1c1.3,0.1,2.7,0.4,2.7,0.4v1.5
			c-0.8-0.3-1.5-0.6-2.6-0.8c-1.8-0.1-3,0.8-3,2.4c0,1.6,1.1,2.5,3,2.4c1.1-0.1,1.9-0.4,2.6-0.8v1.5c0,0-1.4,0.3-2.7,0.4
			c-2.5,0.1-4-0.3-4.8-1.1v8h5.1c1.9,0,3.4-1.5,3.4-3.4V51.2h-5.1V51z"/>
	</g>
</g>
<g>
	<g transform="translate(200 920)">
		<path class="st0" d="M-25.3-868.6h1.4v19.8h-1.4V-868.6z"/>
		<path class="st0" d="M-2.7-868.6H-2v19.8h-0.8V-868.6z"/>
		<path class="st0" d="M-20.4-868.6h0.8v19.8h-0.8V-868.6z"/>
		<path class="st0" d="M-8.4-868.6H-7v19.8h-1.4V-868.6z"/>
		<path class="st0" d="M-22.5-868.6h1.4v19.8h-1.4V-868.6z"/>
		<path class="st0" d="M-14.7-868.6h0.8v19.8h-0.8V-868.6z"/>
		<path class="st0" d="M-16.8-868.6h1.4v19.8h-1.4V-868.6z"/>
		<path class="st0" d="M2.2-868.6H3v19.8H2.2V-868.6z"/>
		<path class="st0" d="M-1.2-868.6h1.4v19.8h-1.4V-868.6z"/>
		<path class="st0" d="M-13.4-868.6h0.8v19.8h-0.8V-868.6z"/>
		<path class="st0" d="M-11.2-868.6h1.4v19.8h-1.4V-868.6z"/>
	</g>
	<g>
		<path class="st0" d="M176.9,73.4h2.3c1.1,0,1.7,0.8,1.7,1.7c0,0.9-0.4,1.4-1.1,1.6c0.6,0.1,1.2,0.9,1.2,1.7c0,1.1-0.6,1.8-1.7,1.8
			h-2.4L176.9,73.4L176.9,73.4z M179.1,76.4c0.8,0,1.1-0.5,1.1-1.2s-0.3-1.2-1.1-1.2h-1.3v2.3h1.3V76.4z M179.1,79.6
			c0.8,0,1.1-0.4,1.1-1.2c0-0.6-0.3-1.2-1.1-1.2h-1.4v2.5h1.4V79.6z"/>
		<path class="st0" d="M182,77.8c0-1.4,0.8-2.7,2-2.7c1.4,0,2,1.2,2,2.7c0,1.5-0.6,2.7-2,2.7C182.7,80.5,182,79.2,182,77.8z
			 M185.3,77.8c0-1-0.4-1.9-1.3-1.9s-1.3,1-1.3,1.9s0.4,1.9,1.3,1.9C184.9,79.8,185.3,78.9,185.3,77.8z"/>
		<path class="st0" d="M187.3,73.4h0.8v7h-0.8V73.4z"/>
		<path class="st0" d="M191.1,75.2c1.3,0,2,1.2,2,2.7v0.2h-3.2c0,1,0.5,1.7,1.4,1.7c0.4,0,0.9-0.2,1.2-0.6l0.4,0.4
			c-0.4,0.5-1,0.8-1.6,0.8c-1.3,0-2.2-1.1-2.2-2.7C189.1,76.4,189.8,75.2,191.1,75.2z M189.8,77.5h2.5c0-0.8-0.3-1.7-1.3-1.7
			C190.3,75.7,189.8,76.7,189.8,77.5z"/>
		<path class="st0" d="M194.4,79.3V76h-0.6v-0.6h0.6v-1.4h0.8v1.4h0.9V76h-0.9v3.2c0,0.4,0.1,0.6,0.4,0.6c0.2,0,0.3-0.1,0.4-0.2
			l0.2,0.5c-0.2,0.2-0.4,0.3-0.9,0.3C194.7,80.5,194.4,80,194.4,79.3z"/>
		<path class="st0" d="M196.7,77.8c0-1.4,0.8-2.7,2-2.7c1.4,0,2,1.2,2,2.7c0,1.5-0.6,2.7-2,2.7C197.4,80.5,196.7,79.2,196.7,77.8z
			 M200.1,77.8c0-1-0.4-1.9-1.3-1.9c-0.9,0-1.3,1-1.3,1.9s0.4,1.9,1.3,1.9C199.6,79.8,200.1,78.9,200.1,77.8z"/>
	</g>
</g>
<g>
	<rect x="109.6" y="1" class="st0" width="40.1" height="25.5"/>
	<path class="st3" d="M149.7,0.9h-40.2v25.8h40.4V0.9H149.7z M149.5,1.2c0,0.3,0,24.9,0,25.2c-0.3,0-39.5,0-39.8,0
		c0-0.3,0-24.9,0-25.2C110.1,1.2,149.2,1.2,149.5,1.2z"/>
	<path class="st3" d="M149.5,15.2c0,0-10.9,7.7-31,11.1h31V15.2z"/>
	<path class="st6" d="M145.7,23.2"/>
	
		<radialGradient id="SVGID_1_" cx="124.1866" cy="558.8707" r="2.9402" gradientTransform="matrix(1 0 0 -1 6.416 569.1974)" gradientUnits="userSpaceOnUse">
		<stop  offset="5.618000e-03" style="stop-color:#FFEEE0"/>
		<stop  offset="0.195" style="stop-color:#F6E7DA"/>
		<stop  offset="0.5037" style="stop-color:#DED3CB"/>
		<stop  offset="0.8914" style="stop-color:#B6B4B2"/>
		<stop  offset="1" style="stop-color:#AAAAAA"/>
	</radialGradient>
	<path class="st7" d="M130.6,7.5c-1.7,0-3,1.3-3,2.9c0,1.7,1.3,3,3,3c1.7,0,3-1.3,3-3S132.3,7.5,130.6,7.5z"/>
	<path class="st2" d="M113.7,7.6h-1.6v5.6h1.6c0.9,0,1.5-0.2,2-0.7c0.6-0.5,1-1.3,1-2.2C116.7,8.7,115.5,7.6,113.7,7.6z M115,11.7
		c-0.3,0.3-0.8,0.5-1.5,0.5h-0.3V8.5h0.3c0.7,0,1.1,0.1,1.5,0.5c0.4,0.3,0.6,0.9,0.6,1.4C115.6,10.8,115.3,11.4,115,11.7z"/>
	<rect x="117.2" y="7.6" class="st2" width="1.1" height="5.6"/>
	<path class="st2" d="M120.9,9.6c-0.7-0.2-0.9-0.4-0.9-0.7c0-0.4,0.3-0.6,0.8-0.6c0.3,0,0.6,0.1,0.9,0.5l0.6-0.8
		c-0.5-0.4-1-0.6-1.7-0.6c-1,0-1.8,0.7-1.8,1.6c0,0.8,0.4,1.2,1.4,1.6c0.4,0.2,0.7,0.3,0.8,0.3c0.2,0.1,0.3,0.3,0.3,0.6
		c0,0.5-0.4,0.8-0.9,0.8c-0.5,0-1-0.3-1.2-0.8l-0.7,0.7c0.5,0.7,1.1,1.1,2,1.1c1.1,0,2-0.8,2-1.9C122.6,10.5,122.2,10.1,120.9,9.6z"
		/>
	<path class="st2" d="M122.9,10.3c0,1.7,1.3,3,3,3c0.5,0,0.9-0.1,1.4-0.3v-1.3c-0.4,0.4-0.8,0.6-1.3,0.6c-1.1,0-1.9-0.8-1.9-2
		c0-1.1,0.8-1.9,1.9-1.9c0.5,0,0.9,0.2,1.4,0.6V7.8c-0.5-0.2-0.9-0.3-1.4-0.3C124.2,7.4,122.9,8.7,122.9,10.3z"/>
	<polygon class="st2" points="136,11.3 134.5,7.6 133.3,7.6 135.7,13.3 136.3,13.3 138.8,7.6 137.6,7.6 	"/>
	<polygon class="st2" points="139.3,13.1 142.3,13.1 142.3,12.2 140.3,12.2 140.3,10.6 142.2,10.6 142.2,9.7 140.3,9.7 140.3,8.5 
		142.3,8.5 142.3,7.6 139.3,7.6 	"/>
	<path class="st2" d="M146.6,9.1c0-1.1-0.7-1.7-2-1.7h-1.6v5.6h1.1v-2.3h0.1l1.5,2.3h1.4l-1.8-2.4C146.1,10.6,146.6,10,146.6,9.1z
		 M144.5,10.1h-0.3V8.4h0.3c0.7,0,1.1,0.3,1.1,0.8C145.5,9.8,145.2,10.1,144.5,10.1z"/>
	<path class="st2" d="M147.4,8c0-0.1-0.1-0.2-0.2-0.2H147v0.5h0.1V8.1l0.1,0.2h0.1l-0.2-0.2C147.3,8.1,147.4,8,147.4,8z M147.2,8
		L147.2,8L147.2,8L147.2,8C147.2,7.9,147.2,7.9,147.2,8L147.2,8z"/>
	<path class="st2" d="M147.2,7.6c-0.2,0-0.4,0.2-0.4,0.4c0,0.2,0.2,0.4,0.4,0.4s0.4-0.2,0.4-0.4S147.4,7.6,147.2,7.6z M147.2,8.4
		c-0.2,0-0.3-0.2-0.3-0.4s0.2-0.4,0.3-0.4c0.2,0,0.3,0.2,0.3,0.4C147.5,8.3,147.4,8.4,147.2,8.4z"/>
	<path class="st8" d="M121.8,14.6l1.5,1.5v-1.4h0.2v2l-1.5-1.5v1.5h-0.2V14.6z"/>
	<path class="st2" d="M121.8,14.6v2h0.3c0,0,0-1.3,0-1.4c0.1,0.1,1.5,1.5,1.5,1.5v-2h-0.3c0,0,0,1.3,0,1.4
		C123.2,15.9,121.8,14.6,121.8,14.6L121.8,14.6z M121.9,14.7c0.1,0.1,1.5,1.6,1.5,1.6v-1.5c0,0,0.1,0,0.2,0c0,0,0,1.8,0,1.9
		c-0.1-0.1-1.5-1.5-1.5-1.5v1.5c0,0-0.1,0-0.2,0C121.9,16.4,121.9,14.8,121.9,14.7z"/>
	<path class="st8" d="M124.6,14.7h1v0.2h-0.8v0.6h0.7v0.2h-0.7v0.7h0.8v0.2h-1V14.7z"/>
	<path class="st2" d="M125.5,14.7h-1v1.9h1v-0.2c0,0-0.7,0-0.8,0v-0.7h0.7v-0.2h-0.7V15h0.8V14.7L125.5,14.7z M125.5,14.7
		c0,0,0,0.1,0,0.2h-0.8v0.6h0.7c0,0,0,0.1,0,0.2h-0.7v0.8c0,0,0.7,0,0.8,0c0,0,0,0.1,0,0.2h-0.9c0,0,0-1.8,0-1.9
		S125.5,14.7,125.5,14.7z"/>
	<path class="st8" d="M126.9,16.5h-0.2v-1.7h-0.5v-0.2h1.1v0.2h-0.5L126.9,16.5L126.9,16.5z"/>
	<path class="st2" d="M127.4,14.7h-1.2v0.2c0,0,0.4,0,0.5,0v1.7h0.3v-1.7h0.5L127.4,14.7L127.4,14.7z M127.4,14.7c0,0,0,0.1,0,0.2
		h-0.5v1.7c0,0-0.1,0-0.2,0v-1.7c0,0-0.4,0-0.5,0c0,0,0-0.1,0-0.2C126.4,14.7,127.3,14.7,127.4,14.7z"/>
	<path class="st8" d="M128.8,16l0.6-1.5L130,16l0.5-1.4h0.2l-0.7,2l-0.6-1.5l-0.6,1.5l-0.7-2h0.2L128.8,16z"/>
	<path class="st2" d="M129.4,14.6c0,0-0.6,1.4-0.6,1.5c0-0.1-0.5-1.4-0.5-1.4H128l0.8,2.1c0,0,0.6-1.4,0.6-1.5
		c0,0.1,0.6,1.5,0.6,1.5l0.8-2.1h-0.3c0,0-0.5,1.3-0.5,1.4C130,15.9,129.4,14.5,129.4,14.6L129.4,14.6z M128.8,16
		c0,0,0.6-1.4,0.6-1.5c0,0.1,0.6,1.5,0.6,1.5s0.5-1.4,0.5-1.5c0,0,0.1,0,0.2,0c0,0.1-0.7,1.8-0.7,1.9c0-0.1-0.6-1.5-0.6-1.5
		s-0.6,1.4-0.6,1.5c0-0.1-0.7-1.9-0.7-1.9h0.2C128.3,14.7,128.8,16.1,128.8,16L128.8,16z"/>
	<path class="st8" d="M133.4,15.5c0,0.5-0.4,1-1,1c-0.5,0-1-0.4-1-1c0-0.5,0.4-1,1-1C132.9,14.7,133.4,15.1,133.4,15.5z M131.7,15.5
		c0,0.4,0.3,0.8,0.8,0.8c0.4,0,0.8-0.4,0.8-0.8c0-0.4-0.3-0.8-0.8-0.8C132.1,14.9,131.7,15.2,131.7,15.5z"/>
	<path class="st2" d="M131.5,15.5c0,0.6,0.5,1,1,1c0.6,0,1-0.4,1-1s-0.5-1-1-1S131.5,15.1,131.5,15.5z M131.5,15.5c0-0.5,0.4-1,1-1
		c0.5,0,1,0.4,1,1c0,0.5-0.4,1-1,1C132,16.5,131.5,16.1,131.5,15.5z"/>
	<path class="st8" d="M131.7,15.5c0,0.4,0.4,0.8,0.8,0.8s0.8-0.4,0.8-0.8c0-0.4-0.4-0.8-0.8-0.8C132.1,14.8,131.7,15.2,131.7,15.5z
		 M131.8,15.5c0-0.4,0.3-0.8,0.8-0.8c0.4,0,0.8,0.3,0.8,0.8c0,0.4-0.3,0.8-0.8,0.8C132.1,16.3,131.8,16,131.8,15.5z"/>
	<path class="st8" d="M134.5,16.5h-0.2v-1.9h0.3c0.4,0,0.7,0.1,0.7,0.5c0,0.3-0.2,0.5-0.5,0.5l0.6,0.9h-0.3l-0.6-0.8h-0.1
		L134.5,16.5L134.5,16.5z M134.5,15.5L134.5,15.5c0.3,0,0.5,0,0.5-0.3c0-0.3-0.2-0.3-0.5-0.3h-0.1L134.5,15.5L134.5,15.5z"/>
	<path class="st8" d="M134.3,14.7L134.3,14.7v1.9h0.3v-0.8l0,0l0,0l0.6,0.8h0.3l0,0c0,0-0.6-0.8-0.6-0.9c0.3,0,0.5-0.2,0.5-0.5
		c0-0.4-0.2-0.5-0.7-0.5H134.3z M134.6,14.7c0.5,0,0.7,0.2,0.7,0.5c0,0.3-0.2,0.5-0.5,0.5l0,0l0.6,0.8c-0.1,0-0.2,0-0.2,0l0,0
		l-0.6-0.8h-0.1l0,0v0.8c0,0-0.1,0-0.2,0c0,0,0-1.8,0-1.9C134.4,14.7,134.6,14.7,134.6,14.7z"/>
	<path class="st2" d="M134.5,14.9L134.5,14.9v0.7h0.1c0.2,0,0.5,0,0.5-0.4C135.1,14.9,134.8,14.9,134.5,14.9L134.5,14.9z
		 M134.6,14.9c0.2,0,0.5,0,0.5,0.3c0,0.3-0.2,0.3-0.5,0.3l0,0C134.5,15.4,134.5,14.9,134.6,14.9L134.6,14.9z"/>
	<path class="st8" d="M137.3,14.7h0.3l-0.9,0.9l0.9,1h-0.3l-0.8-0.9l-0.1,0.1v0.8h-0.2v-1.9h0.2v0.8L137.3,14.7z"/>
	<path class="st2" d="M137.6,14.7h-0.3c0,0-0.7,0.7-0.8,0.8c0-0.1,0-0.8,0-0.8h-0.3v1.9h0.3v-0.8l0,0l0.8,0.9h0.3l0,0l-0.9-1
		C136.8,15.5,137.7,14.7,137.6,14.7L137.6,14.7z M137.6,14.7c-0.1,0.1-0.9,0.9-0.9,0.9s0.8,0.9,0.9,1c-0.1,0-0.2,0-0.2,0l0,0
		l-0.8-0.9l0,0l-0.1,0.1v0.8c0,0-0.1,0-0.2,0c0,0,0-1.8,0-1.9c0,0,0.1,0,0.2,0v0.8l0.8-0.8C137.3,14.7,137.5,14.7,137.6,14.7z"/>
</g>
</svg>
